<svg height="512" viewBox="0 0 64 64" width="512" xmlns="http://www.w3.org/2000/svg"><g id="Layer_27" data-name="Layer 27"><path d="m13 33h18a11 11 0 0 1 11 11v18a0 0 0 0 1 0 0h-40a0 0 0 0 1 0 0v-18a11 11 0 0 1 11-11z" fill="#c1c8d1"/><path d="m38 30h24v32h-24z" fill="#c7e2fb"/><path d="m38 57.63c12.49-2 22-12.27 22-24.63a22.79 22.79 0 0 0 -.2-3h-21.8z" fill="#ebf7fe"/><path d="m22 39-6 3-3-9h4z" fill="#ebf7fe"/><path d="m22 39-2.8 1.4 1.8 3.6h2l1.8-3.6z" fill="#698ec0"/><path d="m22 39 6 3 3-9h-4z" fill="#ebf7fe"/><path d="m26 62-3-18h-2l-3 18z" fill="#698ec0"/><path d="m31 16v6a9 9 0 0 1 -9 9 9 9 0 0 1 -9-9v-6h6a6 6 0 0 0 4.8-2.4l1.2-1.6 1.2 1.6a6 6 0 0 0 4.8 2.4z" fill="#fcd4a5"/><path d="m22 31a8.94 8.94 0 0 1 -5-1.52v3.52l5 6 5-6v-3.52a8.94 8.94 0 0 1 -5 1.52z" fill="#fcd4a5"/><path d="m13 22v-5h-1a3 3 0 0 0 0 6h1.06a8.26 8.26 0 0 1 -.06-1z" fill="#fcd4a5"/><path d="m22 2a12 12 0 0 0 -12 12v3.78a3 3 0 0 1 2-.78h1v-1h6a6 6 0 0 0 4.8-2.4l1.2-1.6 1.2 1.6a6 6 0 0 0 4.8 2.4v1h1a3 3 0 0 1 2 .78v-3.78a12 12 0 0 0 -12-12z" fill="#cda57d"/><path d="m32 17h-1v5a8.26 8.26 0 0 1 -.06 1h1.06a3 3 0 0 0 0-6z" fill="#fcd4a5"/><g fill="#c1c8d1"><path d="m44 30h12v4h-12z"/><path d="m42 38h4v4h-4z"/><path d="m42 46h4v4h-4z"/><path d="m42 54h4v4h-4z"/></g><path d="m62 29h-24a1 1 0 0 0 -1 1v3.61a12.09 12.09 0 0 0 -6-1.61h-3v-2a10 10 0 0 0 3.83-6h.17a4 4 0 0 0 3-6.62v-3.38a13 13 0 0 0 -26 0v3.38a4 4 0 0 0 3 6.62h.2a10 10 0 0 0 3.8 6v2h-3a12 12 0 0 0 -12 12v18a1 1 0 0 0 1 1h33v-2h-8.15l-2.85-16.84 1.21-2.42 2.3 1.15a1 1 0 0 0 .49.11 1 1 0 0 0 .95-.68l2.76-8.32a10 10 0 0 1 5.29 2v26a1 1 0 0 0 1 1h24a1 1 0 0 0 1-1v-32a1 1 0 0 0 -1-1zm-30-7v-4a2 2 0 0 1 0 4zm-22-2a2 2 0 0 1 2-2v4a2 2 0 0 1 -2-2zm2-4a4.09 4.09 0 0 0 -1 .14v-2.14a11 11 0 0 1 22 0v2.14a4.09 4.09 0 0 0 -1-.14 1 1 0 0 0 -1-1 5 5 0 0 1 -4-2l-1.2-1.6a1 1 0 0 0 -1.6 0l-1.2 1.6a5 5 0 0 1 -4 2h-6a1 1 0 0 0 -1 1zm2 6v-5h5a7 7 0 0 0 5.6-2.8l.4-.53.4.53a7.06 7.06 0 0 0 4.6 2.73v5.07a8 8 0 0 1 -16 0zm8 10a9.92 9.92 0 0 0 4-.84v1.48l-4 4.8-4-4.8v-1.48a9.92 9.92 0 0 0 4 .84zm-5.42 8.59-2.19-6.59h2.14l3.89 4.67zm-13.58 3.41a10 10 0 0 1 9.29-10l2.76 8.28a1 1 0 0 0 .95.72 1 1 0 0 0 .45-.11l2.3-1.15 1.25 2.42-2.85 16.84h-8.15v-14h-2v14h-4zm16.18 17 2.67-16h.3l2.67 16zm3.2-18h-.76l-1.08-2.15 1.46-.73 1.46.73zm5-2.41-3.84-1.92 3.93-4.67h2.14zm17.62-9.59h10v2h-10zm16 30h-22v-30h4v3a1 1 0 0 0 1 1h12a1 1 0 0 0 1-1v-3h4z"/><path d="m46 37h-4a1 1 0 0 0 -1 1v4a1 1 0 0 0 1 1h4a1 1 0 0 0 1-1v-4a1 1 0 0 0 -1-1zm-1 4h-2v-2h2z"/><path d="m46 45h-4a1 1 0 0 0 -1 1v4a1 1 0 0 0 1 1h4a1 1 0 0 0 1-1v-4a1 1 0 0 0 -1-1zm-1 4h-2v-2h2z"/><path d="m46 53h-4a1 1 0 0 0 -1 1v4a1 1 0 0 0 1 1h4a1 1 0 0 0 1-1v-4a1 1 0 0 0 -1-1zm-1 4h-2v-2h2z"/><path d="m49 37h10v2h-10z"/><path d="m49 41h10v2h-10z"/><path d="m49 45h10v2h-10z"/><path d="m49 49h10v2h-10z"/><path d="m49 53h10v2h-10z"/><path d="m49 57h10v2h-10z"/></g></svg>